<svg width="33" height="33" viewBox="0 0 33 33" fill="none" xmlns="http://www.w3.org/2000/svg">
<g clip-path="url(#clip0_1_309)">
<path d="M0.00572046 16.468C-0.220572 7.54484 7.53782 -0.0227909 16.5265 -9.73393e-06C25.4163 0.0227715 33.0315 7.54769 33 16.5676C32.9685 25.4566 25.4135 33.0413 16.3919 33C7.52779 32.9587 -0.246352 25.4566 0.00572046 16.468ZM30.727 16.4765C30.6998 8.60701 24.3579 2.26245 16.4348 2.26957C8.58764 2.27669 2.23284 8.65542 2.22568 16.4879C2.21708 24.3446 8.61342 30.7518 16.4821 30.7304C24.4095 30.7091 30.7256 24.3417 30.727 16.4765Z" fill="#FC9696"/>
<path d="M22.7037 11.1486C22.7209 11.8505 22.4387 12.1666 22.1294 12.4727C20.9349 13.6588 19.7576 14.8619 18.5416 16.0266C18.1492 16.4025 18.1793 16.6317 18.5531 16.9919C19.7834 18.1766 20.9764 19.3968 22.1924 20.5956C22.6034 21 22.7868 21.4571 22.5633 22.0052C22.2425 22.7926 21.3288 22.9051 20.627 22.2231C19.4368 21.0655 18.248 19.9065 17.1051 18.7034C16.6411 18.2136 16.3561 18.1666 15.8691 18.6849C14.7491 19.8766 13.5661 21.0085 12.4031 22.159C11.7514 22.8026 11.0983 22.8823 10.5913 22.4025C10.1029 21.9397 10.1932 21.1609 10.8248 20.5287C12.0135 19.337 13.1951 18.1381 14.4111 16.9734C14.8049 16.5961 14.7706 16.3669 14.3968 16.0081C13.1679 14.8235 11.9734 13.6032 10.7575 12.4044C10.3464 12 10.1645 11.543 10.388 10.9948C10.7088 10.2074 11.6211 10.0964 12.3243 10.7798C13.5145 11.9374 14.7033 13.0964 15.8462 14.2995C16.3117 14.7907 16.5938 14.832 17.0822 14.3166C18.2709 13.0608 19.5241 11.8633 20.753 10.6431C21.1282 10.2701 21.578 10.1718 22.0635 10.3669C22.506 10.5449 22.6951 10.9179 22.7051 11.15L22.7037 11.1486Z" fill="#FC9696"/>
</g>
<defs>
<clipPath id="clip0_1_309">
<rect width="33" height="33" fill="white"/>
</clipPath>
</defs>
</svg>
