<svg width="172" height="27" viewBox="0 0 172 27" fill="none" xmlns="http://www.w3.org/2000/svg">
<path d="M19.9749 15.6856C19.6861 15.9605 19.5535 16.3581 19.6193 16.7481L20.6103 22.1372C20.6939 22.5939 20.4977 23.0562 20.1087 23.3201C19.7274 23.594 19.2202 23.6268 18.8043 23.4078L13.8668 20.8775C13.6951 20.7877 13.5045 20.7395 13.3094 20.734H13.0073C12.9025 20.7494 12.7999 20.7822 12.7063 20.8326L7.76765 23.3749C7.52351 23.4954 7.24703 23.5381 6.97613 23.4954C6.31616 23.3727 5.87581 22.7549 5.98395 22.1032L6.97613 16.7141C7.04191 16.3209 6.90924 15.9211 6.62051 15.6418L2.59491 11.8081C2.25823 11.4871 2.14118 11.0052 2.29502 10.5703C2.44441 10.1366 2.82567 9.82004 3.28609 9.74884L8.82673 8.9591C9.24813 8.91638 9.61825 8.66445 9.80776 8.29203L12.2492 3.37395C12.3072 3.26441 12.3819 3.16364 12.4722 3.0782L12.5725 3.00153C12.6249 2.94457 12.6851 2.89747 12.752 2.85914L12.8735 2.81532L13.063 2.73865H13.5324C13.9515 2.78137 14.3205 3.02782 14.5134 3.39585L16.9872 8.29203C17.1655 8.65021 17.5123 8.89885 17.9125 8.9591L23.4531 9.74884C23.9213 9.81456 24.3126 10.1322 24.4676 10.5703C24.6136 11.0096 24.4877 11.4915 24.1443 11.8081L19.9749 15.6856Z" fill="#F6973F"/>
<path d="M56.2859 15.6856C55.9972 15.9605 55.8645 16.3581 55.9303 16.7481L56.9214 22.1372C57.005 22.5939 56.8088 23.0562 56.4197 23.3201C56.0384 23.594 55.5312 23.6268 55.1154 23.4078L50.1778 20.8775C50.0062 20.7877 49.8155 20.7395 49.6204 20.734H49.3183C49.2135 20.7494 49.111 20.7822 49.0173 20.8326L44.0787 23.3749C43.8345 23.4954 43.5581 23.5381 43.2872 23.4954C42.6272 23.3727 42.1868 22.7549 42.295 22.1032L43.2872 16.7141C43.3529 16.3209 43.2203 15.9211 42.9315 15.6418L38.9059 11.8081C38.5693 11.4871 38.4522 11.0052 38.6061 10.5703C38.7554 10.1366 39.1367 9.82004 39.5971 9.74884L45.1378 8.9591C45.5592 8.91638 45.9293 8.66445 46.1188 8.29203L48.5602 3.37395C48.6182 3.26441 48.6929 3.16364 48.7832 3.0782L48.8835 3.00153C48.9359 2.94457 48.9961 2.89747 49.063 2.85914L49.1845 2.81532L49.3741 2.73865H49.8434C50.2626 2.78137 50.6316 3.02782 50.8244 3.39585L53.2982 8.29203C53.4766 8.65021 53.8233 8.89885 54.2235 8.9591L59.7641 9.74884C60.2324 9.81456 60.6237 10.1322 60.7786 10.5703C60.9247 11.0096 60.7987 11.4915 60.4553 11.8081L56.2859 15.6856Z" fill="#F6973F"/>
<path d="M92.5972 15.6856C92.3085 15.9605 92.1758 16.3581 92.2416 16.7481L93.2326 22.1372C93.3163 22.5939 93.12 23.0562 92.731 23.3201C92.3497 23.594 91.8425 23.6268 91.4266 23.4078L86.4891 20.8775C86.3174 20.7877 86.1268 20.7395 85.9317 20.734H85.6296C85.5248 20.7494 85.4222 20.7822 85.3286 20.8326L80.39 23.3749C80.1458 23.4954 79.8693 23.5381 79.5984 23.4954C78.9385 23.3727 78.4981 22.7549 78.6063 22.1032L79.5984 16.7141C79.6642 16.3209 79.5316 15.9211 79.2428 15.6418L75.2172 11.8081C74.8805 11.4871 74.7635 11.0052 74.9173 10.5703C75.0667 10.1366 75.448 9.82004 75.9084 9.74884L81.449 8.9591C81.8704 8.91638 82.2406 8.66445 82.4301 8.29203L84.8715 3.37395C84.9295 3.26441 85.0042 3.16364 85.0945 3.0782L85.1948 3.00153C85.2472 2.94457 85.3074 2.89747 85.3743 2.85914L85.4958 2.81532L85.6853 2.73865H86.1547C86.5738 2.78137 86.9429 3.02782 87.1357 3.39585L89.6095 8.29203C89.7879 8.65021 90.1346 8.89885 90.5348 8.9591L96.0754 9.74884C96.5436 9.81456 96.9349 10.1322 97.0899 10.5703C97.2359 11.0096 97.11 11.4915 96.7666 11.8081L92.5972 15.6856Z" fill="#F6973F"/>
<path opacity="0.3" d="M165.219 15.6856C164.931 15.9605 164.798 16.3581 164.864 16.7481L165.855 22.1372C165.938 22.5939 165.742 23.0562 165.353 23.3201C164.972 23.594 164.465 23.6268 164.049 23.4078L159.111 20.8775C158.94 20.7877 158.749 20.7395 158.554 20.734H158.252C158.147 20.7494 158.044 20.7822 157.951 20.8326L153.012 23.3749C152.768 23.4954 152.491 23.5381 152.221 23.4954C151.561 23.3727 151.12 22.7549 151.228 22.1032L152.221 16.7141C152.286 16.3209 152.154 15.9211 151.865 15.6418L147.839 11.8081C147.503 11.4871 147.386 11.0052 147.539 10.5703C147.689 10.1366 148.07 9.82004 148.53 9.74884L154.071 8.9591C154.493 8.91638 154.863 8.66445 155.052 8.29203L157.494 3.37395C157.552 3.26441 157.626 3.16364 157.717 3.0782L157.817 3.00153C157.869 2.94457 157.929 2.89747 157.996 2.85914L158.118 2.81532L158.307 2.73865H158.777C159.196 2.78137 159.565 3.02782 159.758 3.39585L162.232 8.29203C162.41 8.65021 162.757 8.89885 163.157 8.9591L168.697 9.74884C169.166 9.81456 169.557 10.1322 169.712 10.5703C169.858 11.0096 169.732 11.4915 169.389 11.8081L165.219 15.6856Z" fill="#F6973F"/>
<path opacity="0.3" d="M128.975 15.6856C128.686 15.9605 128.553 16.3581 128.619 16.7481L129.61 22.1372C129.694 22.5939 129.498 23.0562 129.109 23.3201C128.727 23.594 128.22 23.6268 127.804 23.4078L122.867 20.8775C122.695 20.7877 122.504 20.7395 122.309 20.734H122.007C121.902 20.7494 121.8 20.7822 121.706 20.8326L116.768 23.3749C116.524 23.4954 116.247 23.5381 115.976 23.4954C115.316 23.3727 114.876 22.7549 114.984 22.1032L115.976 16.7141C116.042 16.3209 115.909 15.9211 115.621 15.6418L111.595 11.8081C111.258 11.4871 111.141 11.0052 111.295 10.5703C111.444 10.1366 111.826 9.82004 112.286 9.74884L117.827 8.9591C118.248 8.91638 118.618 8.66445 118.808 8.29203L121.249 3.37395C121.307 3.26441 121.382 3.16364 121.472 3.0782L121.573 3.00153C121.625 2.94457 121.685 2.89747 121.752 2.85914L121.874 2.81532L122.063 2.73865H122.532C122.952 2.78137 123.321 3.02782 123.513 3.39585L125.987 8.29203C126.166 8.65021 126.512 8.89885 126.912 8.9591L132.453 9.74884C132.921 9.81456 133.313 10.1322 133.468 10.5703C133.614 11.0096 133.488 11.4915 133.144 11.8081L128.975 15.6856Z" fill="#F6973F"/>
</svg>
