<svg width="23" height="18" viewBox="0 0 23 18" fill="none" xmlns="http://www.w3.org/2000/svg">
<path d="M4.92267 1H2C1.44772 1 1 1.44772 1 2V16C1 16.5523 1.44771 17 2 17H4.44C4.99228 17 5.44 16.5523 5.44 16V15.362C5.44 14.4309 6.60059 14.0051 7.20272 14.7153L8.84045 16.6467C9.03046 16.8708 9.30938 17 9.60318 17H13.1452C13.4225 17 13.6874 16.8849 13.8765 16.6821L15.9187 14.4926C16.5379 13.8287 17.65 14.2668 17.65 15.1746V16C17.65 16.5523 18.0977 17 18.65 17H21C21.5523 17 22 16.5523 22 16V2C22 1.44772 21.5523 1 21 1H18.1492C17.8349 1 17.5389 1.14776 17.35 1.39894L12.1837 8.2684C11.7764 8.80997 10.9598 8.79818 10.5683 8.24509L5.73889 1.42226C5.55143 1.15742 5.24713 1 4.92267 1Z" fill="#F6B21B" stroke="black"/>
</svg>
