<svg width="19" height="19" viewBox="0 0 19 19" fill="none" xmlns="http://www.w3.org/2000/svg">
<path d="M8.16409 12.6348C8.45507 12.3438 8.45507 11.872 8.16409 11.581C7.87311 11.29 7.40134 11.29 7.11036 11.581L4.12997 14.5614C3.83899 14.8524 3.83899 15.3242 4.12997 15.6151C4.42095 15.9061 4.89272 15.9061 5.1837 15.6151L8.16409 12.6348Z" fill="black"/>
<path d="M10.6176 12.1079C8.56003 12.1079 6.89208 10.4399 6.89208 8.38237C6.89208 6.32484 8.56003 4.65688 10.6176 4.65688C12.6751 4.65688 14.3431 6.32484 14.3431 8.38237C14.3431 10.4399 12.6751 12.1079 10.6176 12.1079ZM10.6176 13.5981C13.4981 13.5981 15.8333 11.2629 15.8333 8.38237C15.8333 5.50183 13.4981 3.16669 10.6176 3.16669C7.73702 3.16669 5.40188 5.50183 5.40188 8.38237C5.40188 11.2629 7.73702 13.5981 10.6176 13.5981Z" fill="black"/>
</svg>
